Coordinates
version=1
nRows=12
nColumns=33
inDegrees=yes

Units are S.I. units (second, meters, Newtons, ...)
Angles are in degrees.

endheader
time	ground_thorax_rot_x	ground_thorax_rot_y	ground_thorax_rot_z	ground_thorax_tx	ground_thorax_ty	ground_thorax_tz	clav_prot_r	clav_elev_r	scapula_abduction_r	scapula_elevation_r	scapula_upward_rot_r	scapula_winging_r	shoulder_elv_r	plane_of_elev_r	axial_rot_r	elbow_flexion_r	pro_sup_r	wrist_flex_r	wrist_dev_r	clav_prot_l	clav_elev_l	scapula_abduction_l	scapula_elevation_l	scapula_upward_rot_l	scapula_winging_l	shoulder_elv_l	plane_of_elev_l	axial_rot_l	elbow_flexion_l	pro_sup_l	wrist_flex_l	wrist_dev_l
      0.01000000	      3.23933887	     -6.42111451	      8.91622844	     -0.11342028	      1.03349877	      0.01383177	      6.56857742	     -9.00898706	     11.44521226	     -2.01801729	     -0.03915963	     -1.80927719	     35.99601490	     13.45063945	      8.80280365	     44.52692297	     42.47241537	      8.54598493	     21.23221486	      6.35702923	    -13.73129267	     -7.04656378	      0.84222354	    -15.54411391	     -3.05925933	     47.99719688	     10.77755654	     -7.90162946	     56.14084688	     29.83498471	     14.89889938	     -6.22410498
      0.02000000	      3.31634253	     -6.37725017	      8.90105350	     -0.11316158	      1.03389731	      0.01383187	      6.60451493	     -9.07135094	     11.62331120	     -2.17360145	      0.19495706	     -1.86471416	     36.04001916	     13.69736352	      8.66721405	     43.94277124	     42.44838091	      8.37578855	     21.31838613	      6.42913594	    -13.87660605	     -7.18451513	      1.00841789	    -15.48116677	     -3.06102376	     47.94564093	     11.00270561	     -8.02771475	     56.02727592	     29.80151210	     14.88695586	     -6.26375034
      0.03000000	      3.24878141	     -6.31761518	      8.77749609	     -0.11298498	      1.03423591	      0.01380202	      6.66303815	     -9.08621937	     11.86619283	     -2.30981807	      0.48683668	     -1.96537260	     35.96177296	     14.07734438	      8.42053873	     43.19842171	     42.36182007	      8.17554668	     21.45164375	      6.50792086	    -13.94722949	     -7.36269361	      1.15281218	    -15.31115344	     -3.01671497	     47.92355854	     11.33646816	     -8.05642316	     55.84337970	     29.57399262	     14.85581997	     -6.30702205
      0.04000000	      3.28481200	     -6.21499955	      8.84475815	     -0.11240522	      1.03454031	      0.01368457	      6.67526330	     -9.11827358	     11.96122729	     -2.40067060	      0.63509552	     -1.99372132	     36.05635122	     14.18615261	      8.30846607	     42.89751961	     42.35306617	      8.11226264	     21.48145369	      6.55666748	    -14.01965603	     -7.44136258	      1.21418343	    -15.32510388	     -3.01619547	     47.78872876	     11.57062839	     -8.15263721	     55.99554313	     29.46614939	     14.84878737	     -6.34991843
      0.05000000	      3.19384187	     -6.15133278	      8.77524260	     -0.11256274	      1.03381307	      0.01368395	      6.96350822	     -8.42326795	     12.67887840	     -1.99553796	      1.19175230	     -2.54794032	     35.37006630	     14.93875848	      7.34722781	     41.83441401	     41.66242889	      7.96778047	     21.83845613	      6.94075687	    -13.42728521	     -8.21934086	      0.83463485	    -14.88593295	     -2.46827560	     47.24779778	     12.44196836	     -8.15713122	     55.38540515	     27.08486370	     14.47362587	     -6.44802902
      0.06000000	      3.25261317	     -6.10240504	      8.69737762	     -0.11233193	      1.03428088	      0.01364440	      6.99077132	     -8.58462993	     12.85195936	     -2.23802905	      1.42069779	     -2.56559725	     35.56056255	     15.14268952	      7.17696784	     41.41070182	     41.70801224	      7.88249842	     21.83481463	      7.00582189	    -13.57394773	     -8.35943275	      1.02327187	    -14.77640747	     -2.46555973	     47.21071783	     12.72640566	     -8.24066935	     55.34534223	     26.90792313	     14.39404820	     -6.41925126
      0.07000000	      3.14226186	     -6.05336845	      8.55932958	     -0.11223322	      1.03469837	      0.01353284	      7.06588771	     -8.71225900	     13.12235661	     -2.46386987	      1.68597684	     -2.63136959	     35.62770576	     15.47769062	      6.88982878	     40.80122785	     41.73046367	      7.76775377	     21.85587758	      7.08045733	    -13.62295534	     -8.54210717	      1.16584794	    -14.56419314	     -2.40857234	     47.21326780	     13.07586181	     -8.28015701	     55.27151075	     26.49189864	     14.22434704	     -6.37727773
      0.08000000	      3.06091929	     -6.02756644	      8.44608796	     -0.11212166	      1.03489493	      0.01343779	      7.17407059	     -8.72802693	     13.45907042	     -2.59971893	      1.98220979	     -2.76676297	     35.62872948	     15.87330558	      6.47348661	     40.21515808	     41.70872958	      7.67419354	     21.86963036	      7.18061078	    -13.54546516	     -8.77374226	      1.19093778	    -14.34215027	     -2.28001041	     47.13110638	     13.51310322	     -8.34076400	     55.25448492	     25.77812060	     13.92838455	     -6.33902416
      0.09000000	      3.11258489	     -5.95014757	      8.61137181	     -0.11178279	      1.03523051	      0.01329778	      7.17657482	     -8.76232737	     13.53837043	     -2.69079909	      2.12675079	     -2.78869570	     35.75580209	     15.97902367	      6.37121119	     40.09067015	     41.71436253	      7.65055714	     21.85942591	      7.21702482	    -13.61690420	     -8.83295049	      1.25464782	    -14.34991586	     -2.28378306	     47.00234959	     13.75735131	     -8.43682273	     55.49573290	     25.66308287	     13.88309653	     -6.37647511
      0.10000000	      3.01170433	     -5.93506638	      8.60413937	     -0.11209364	      1.03450587	      0.01315326	      7.76459050	     -8.07133153	     14.67315551	     -2.19757056	      2.46561055	     -3.48707302	     35.48976579	     16.61731998	      5.18812833	     39.51598083	     41.61930678	      7.74596397	     21.72697907	      7.51644191	    -12.97223748	     -9.47254600	      0.83677927	    -13.89925377	     -1.76544728	     46.44234410	     14.62291216	     -8.75097335	     55.06066733	     22.63580695	     12.20924874	     -6.18225800
      0.11000000	      3.05140272	     -5.85894608	      8.71301794	     -0.11184235	      1.03489115	      0.01297896	      7.74875243	     -8.15630262	     14.75115486	     -2.35294678	      2.65662490	     -3.49366011	     35.67854280	     16.76312242	      5.07142131	     39.39439863	     41.64497616	      7.71059303	     21.70972251	      7.52540392	    -13.09295097	     -9.49728221	      0.96981311	    -13.86073326	     -1.79986342	     46.36680175	     14.89685271	     -8.78079288	     55.32911542	     22.56866419	     12.15036483	     -6.21416874
      0.12000000	      3.02062429	     -5.90459345	      8.44441794	     -0.11175482	      1.03537962	      0.01290977	      7.77694877	     -8.30542702	     15.00195198	     -2.64050347	      3.03059073	     -3.55306298	     35.87168658	     17.22358415	      4.80027646	     39.08761371	     41.70381158	      7.62366952	     21.69301452	      7.51589603	    -13.20152227	     -9.54999611	      1.18632202	    -13.61399735	     -1.81150324	     46.46876793	     15.31557087	     -8.71368310	     55.48935409	     22.35584084	     11.90044465	     -6.21449503
